# This file uses centimeters as units for non-parametric coordinates.

mtllib room3 outline.mtl
g default
v -3.115574 -3.305589 0.000000
v 4.401301 -3.323446 0.000000
v -5.025559 -2.141275 0.000000
v 4.919164 -1.401685 0.000000
v -5.152792 -1.029790 0.000000
v 5.251345 -1.304872 0.000000
v -5.958603 -0.950306 0.000000
v 6.026318 -0.593905 0.000000
v -6.722003 -0.036739 0.000000
v 6.526213 1.070625 0.000000
v -6.396850 1.626090 0.000000
v 5.043354 2.036265 0.000000
v -2.254705 2.977905 0.000000
v 3.931210 2.164365 0.000000
v -1.148384 4.814176 0.000000
v 2.447463 2.900004 0.000000
v 1.777205 5.153674 0.000000
v -3.705547 -2.471501 0.000000
v 4.699003 -2.218687 0.000000
v -3.460575 -3.970263 0.000000
v 4.807143 -3.854433 0.000000
v -4.151805 -3.123579 0.000000
v 5.512689 -2.437954 0.000000
v -5.546440 -2.597954 0.000000
v -5.612775 -1.497030 0.000000
v 5.443905 -1.915843 0.000000
v 5.654089 -2.019885 0.000000
v -6.323293 -1.639809 0.000000
v 6.714712 -1.025589 0.000000
v -7.458858 -0.226060 0.000000
v 7.159695 1.302519 0.000000
v -6.941099 2.107515 0.000000
v 5.321500 2.807942 0.000000
v -2.746344 3.595912 0.000000
v 4.166590 2.960457 0.000000
v -1.758746 5.371201 0.000000
v 3.038501 3.397623 0.000000
v 2.186262 5.695111 0.000000
v 0.952269 5.163767 0.000000
v 0.952271 5.696962 0.000000
v 1.052826 -3.315454 0.000000
v 1.052827 -3.906274 0.000000
v -1.078447 -3.310541 0.000000
v -1.078448 -3.938141 0.000000
v -1.067050 4.901502 0.000000
v -1.067056 5.696959 -0.000000
v 1.052826 -3.315454 0.503028
v 4.401301 -3.323446 0.503028
v 1.052827 -3.906274 0.503028
v 4.807143 -3.854433 0.503028
v 4.699003 -2.218687 0.503029
v 5.512689 -2.437954 0.503029
v 4.919164 -1.401685 0.503029
v 5.251345 -1.304872 0.503028
v 5.443905 -1.915843 0.503029
v 5.654089 -2.019885 0.503028
v 6.026318 -0.593905 0.503028
v 6.714712 -1.025589 0.503028
v 6.526213 1.070625 0.503028
v 7.159695 1.302519 0.503028
v 5.043354 2.036265 0.503028
v 5.321500 2.807942 0.503028
v 3.931210 2.164365 0.503028
v 4.166590 2.960457 0.503028
v 2.447463 2.900004 0.503028
v 3.038501 3.397623 0.503028
v 1.777205 5.153674 0.503028
v 2.186262 5.695111 0.503028
v 0.952269 5.163767 0.503028
v 0.952271 5.696962 0.503028
v -3.115574 -3.305589 0.503029
v -3.705547 -2.471501 0.503029
v -4.151805 -3.123579 0.503029
v -3.460575 -3.970263 0.503029
v -5.025559 -2.141275 0.503028
v -5.152792 -1.029790 0.503029
v -5.612775 -1.497030 0.503029
v -5.546440 -2.597954 0.503028
v -5.958603 -0.950306 0.503029
v -6.323293 -1.639809 0.503029
v -6.722003 -0.036739 0.503028
v -7.458858 -0.226060 0.503028
v -6.396850 1.626090 0.503028
v -6.941099 2.107515 0.503028
v -2.254705 2.977905 0.503029
v -2.746344 3.595912 0.503029
v -1.148384 4.814176 0.503029
v -1.758746 5.371201 0.503029
v -1.067050 4.901502 0.503028
v -1.067056 5.696959 0.503028
v -1.078447 -3.310541 0.503028
v -1.078448 -3.938141 0.503028
vt 0.000000 0.000000
vt 1.000000 0.000000
vt 1.000000 1.000000
vt 0.000000 1.000000
vt 0.000000 0.000000
vt 1.000000 0.000000
vt 1.000000 1.000000
vt 0.000000 1.000000
vt 0.000000 0.000000
vt 1.000000 0.000000
vt 1.000000 1.000000
vt 0.000000 1.000000
vt 0.000000 0.000000
vt 1.000000 0.000000
vt 1.000000 1.000000
vt 0.000000 1.000000
vt 0.000000 0.000000
vt 1.000000 0.000000
vt 1.000000 1.000000
vt 0.000000 1.000000
vt 0.000000 0.000000
vt 1.000000 0.000000
vt 1.000000 1.000000
vt 0.000000 1.000000
vt 0.000000 0.000000
vt 1.000000 0.000000
vt 1.000000 1.000000
vt 0.000000 1.000000
vt 0.000000 0.000000
vt 1.000000 0.000000
vt 1.000000 1.000000
vt 0.000000 1.000000
vt 0.000000 0.000000
vt 1.000000 0.000000
vt 1.000000 1.000000
vt 0.000000 1.000000
vt 0.000000 0.000000
vt 1.000000 0.000000
vt 1.000000 1.000000
vt 0.000000 1.000000
vt 0.000000 0.000000
vt 1.000000 0.000000
vt 1.000000 1.000000
vt 0.000000 1.000000
vt 0.000000 0.000000
vt 1.000000 0.000000
vt 1.000000 1.000000
vt 0.000000 1.000000
vt 0.000000 0.000000
vt 1.000000 0.000000
vt 1.000000 1.000000
vt 0.000000 1.000000
vt 0.000000 0.000000
vt 1.000000 0.000000
vt 1.000000 1.000000
vt 0.000000 1.000000
vt 0.000000 0.000000
vt 1.000000 0.000000
vt 1.000000 1.000000
vt 0.000000 1.000000
vt 0.000000 0.000000
vt 0.000000 1.000000
vt 0.000000 0.000000
vt 1.000000 0.000000
vt 1.000000 1.000000
vt 0.000000 1.000000
vt 1.000000 0.000000
vt 1.000000 1.000000
vt 0.000000 0.000000
vt 1.000000 0.000000
vt 1.000000 1.000000
vt 0.000000 1.000000
vt 0.000000 0.000000
vt 1.000000 0.000000
vt 1.000000 1.000000
vt 0.000000 1.000000
vt 0.661483 0.000000
vt 0.661483 1.000000
vt 0.447557 0.000000
vt 0.447557 1.000000
vt 0.722681 0.000000
vt 0.722681 1.000000
vt 0.236457 0.000000
vt 0.236457 1.000000
vt 0.000000 0.000000
vt 0.447557 0.000000
vt 0.447557 1.000000
vt 0.000000 1.000000
vt 0.000000 0.000000
vt 1.000000 0.000000
vt 1.000000 1.000000
vt 0.000000 1.000000
vt 0.000000 0.000000
vt 1.000000 0.000000
vt 1.000000 1.000000
vt 0.000000 1.000000
vt 0.000000 0.000000
vt 1.000000 0.000000
vt 1.000000 1.000000
vt 0.000000 1.000000
vt 0.000000 0.000000
vt 1.000000 0.000000
vt 1.000000 1.000000
vt 0.000000 1.000000
vt 0.000000 0.000000
vt 1.000000 0.000000
vt 1.000000 1.000000
vt 0.000000 1.000000
vt 0.000000 0.000000
vt 1.000000 0.000000
vt 1.000000 1.000000
vt 0.000000 1.000000
vt 0.000000 0.000000
vt 1.000000 0.000000
vt 1.000000 1.000000
vt 0.000000 1.000000
vt 0.000000 0.000000
vt 1.000000 0.000000
vt 1.000000 1.000000
vt 0.000000 1.000000
vt 0.000000 0.000000
vt 1.000000 0.000000
vt 1.000000 1.000000
vt 0.000000 1.000000
vt 0.000000 0.000000
vt 1.000000 0.000000
vt 1.000000 1.000000
vt 0.000000 1.000000
vt 0.000000 0.000000
vt 1.000000 0.000000
vt 1.000000 1.000000
vt 0.000000 1.000000
vt 0.000000 0.000000
vt 1.000000 0.000000
vt 1.000000 1.000000
vt 0.000000 1.000000
vt 0.000000 0.000000
vt 1.000000 0.000000
vt 1.000000 1.000000
vt 0.000000 1.000000
vt 0.000000 0.000000
vt 1.000000 0.000000
vt 1.000000 1.000000
vt 0.000000 1.000000
vt 0.000000 0.000000
vt 0.236457 0.000000
vt 0.236457 1.000000
vt 0.000000 1.000000
vt 0.000000 0.000000
vt 1.000000 0.000000
vt 1.000000 1.000000
vt 0.000000 1.000000
vt 0.000000 0.000000
vt 1.000000 0.000000
vt 1.000000 1.000000
vt 0.000000 1.000000
vt 0.000000 0.000000
vt 1.000000 0.000000
vt 1.000000 1.000000
vt 0.000000 1.000000
vt 0.661483 0.000000
vt 1.000000 0.000000
vt 1.000000 1.000000
vt 0.661483 1.000000
vt 0.722681 0.000000
vt 1.000000 0.000000
vt 1.000000 1.000000
vt 0.722681 1.000000
vt 0.000000 0.000000
vt 0.447557 0.000000
vt 0.447557 1.000000
vt 0.000000 1.000000
vt 0.000000 0.000000
vt 1.000000 0.000000
vt 1.000000 1.000000
vt 0.000000 1.000000
vt 0.000000 0.000000
vt 1.000000 0.000000
vt 1.000000 1.000000
vt 0.000000 1.000000
vt 0.000000 0.000000
vt 1.000000 0.000000
vt 1.000000 1.000000
vt 0.000000 1.000000
vt 0.000000 0.000000
vt 1.000000 0.000000
vt 1.000000 1.000000
vt 0.000000 1.000000
vt 0.000000 0.000000
vt 1.000000 0.000000
vt 1.000000 1.000000
vt 0.000000 1.000000
vt 0.000000 0.000000
vt 1.000000 0.000000
vt 1.000000 1.000000
vt 0.000000 1.000000
vt 0.000000 0.000000
vt 1.000000 0.000000
vt 1.000000 1.000000
vt 0.000000 1.000000
vt 0.000000 0.000000
vt 1.000000 0.000000
vt 1.000000 1.000000
vt 0.000000 1.000000
vt 0.000000 0.000000
vt 1.000000 0.000000
vt 1.000000 1.000000
vt 0.000000 1.000000
vt 0.000000 0.000000
vt 1.000000 0.000000
vt 1.000000 1.000000
vt 0.000000 1.000000
vt 0.000000 0.000000
vt 1.000000 0.000000
vt 1.000000 1.000000
vt 0.000000 1.000000
vt 0.000000 0.000000
vt 1.000000 0.000000
vt 1.000000 1.000000
vt 0.000000 1.000000
vt 0.000000 0.000000
vt 1.000000 0.000000
vt 1.000000 1.000000
vt 0.000000 1.000000
vt 0.000000 0.000000
vt 1.000000 0.000000
vt 1.000000 1.000000
vt 0.000000 1.000000
vt 0.000000 0.000000
vt 0.236457 0.000000
vt 0.236457 1.000000
vt 0.000000 1.000000
vt 0.000000 0.000000
vt 1.000000 0.000000
vt 1.000000 1.000000
vt 0.000000 1.000000
vt 0.000000 0.000000
vt 1.000000 0.000000
vt 1.000000 1.000000
vt 0.000000 1.000000
vt 0.000000 0.000000
vt 1.000000 0.000000
vt 1.000000 1.000000
vt 0.000000 1.000000
vt 0.661483 0.000000
vt 1.000000 0.000000
vt 1.000000 1.000000
vt 0.661483 1.000000
vt 0.722681 0.000000
vt 1.000000 0.000000
vt 1.000000 1.000000
vt 0.722681 1.000000
vn -0.000000 0.000000 1.000000
vn 0.000000 0.000000 1.000000
vn 0.000000 0.000000 1.000000
vn -0.000000 0.000000 1.000000
vn 0.000000 0.000000 1.000000
vn -0.000000 0.000000 1.000000
vn -0.000000 0.000000 1.000000
vn 0.000000 0.000000 1.000000
vn -0.000000 -0.000000 1.000000
vn -0.000000 -0.000000 1.000000
vn -0.000000 -0.000000 1.000000
vn 0.000000 -0.000000 1.000000
vn 0.000000 -0.000000 1.000000
vn -0.000000 -0.000000 1.000000
vn 0.000000 0.000000 1.000000
vn 0.000000 0.000000 1.000000
vn 0.000000 0.000000 1.000000
vn 0.000000 -0.000000 1.000000
vn -0.000000 0.000000 1.000000
vn -0.000000 0.000000 1.000000
vn 0.000000 -0.000000 1.000000
vn 0.000000 -0.000000 1.000000
vn -0.000000 0.000000 1.000000
vn -0.000000 0.000000 1.000000
vn 0.000000 0.000000 1.000000
vn 0.000000 0.000000 1.000000
vn -0.000000 -0.000000 1.000000
vn -0.000000 -0.000000 1.000000
vn 0.000000 0.000000 1.000000
vn 0.000000 0.000000 1.000000
vn -0.000000 -0.000000 1.000000
vn -0.000000 -0.000000 1.000000
vn 0.000000 0.000000 1.000000
vn 0.000000 0.000000 1.000000
vn 0.000000 0.000000 1.000000
vn 0.000000 0.000000 1.000000
vn 0.000000 0.000000 1.000000
vn 0.000000 0.000000 1.000000
vn 0.000000 0.000000 1.000000
vn 0.000000 0.000000 1.000000
vn 0.000000 0.000000 1.000000
vn 0.000000 0.000000 1.000000
vn 0.000000 -0.000000 1.000000
vn 0.000000 -0.000000 1.000000
vn 0.000000 0.000000 1.000000
vn 0.000000 0.000000 1.000000
vn 0.000000 0.000000 -1.000000
vn 0.000000 0.000000 -1.000000
vn -0.000000 0.000000 -1.000000
vn -0.000000 0.000000 -1.000000
vn 0.000000 0.000000 -1.000000
vn 0.000000 0.000000 -1.000000
vn 0.000000 0.000000 -1.000000
vn 0.000000 0.000000 -1.000000
vn 0.000000 0.000000 -1.000000
vn 0.000000 -0.000000 -1.000000
vn -0.000000 0.000000 -1.000000
vn -0.000000 0.000000 -1.000000
vn -0.000000 0.000000 -1.000000
vn -0.000000 0.000000 -1.000000
vn -0.000000 -0.000000 -1.000000
vn 0.000000 -0.000000 -1.000000
vn -0.000000 0.000000 -1.000000
vn -0.000000 0.000000 -1.000000
vn -0.000000 0.000000 -1.000000
vn -0.000000 0.000000 -1.000000
vn 0.000000 0.000000 -1.000000
vn 0.000000 -0.000000 -1.000000
vn -0.000000 0.000000 -1.000000
vn -0.000000 0.000000 -1.000000
vn -0.000000 0.000000 -1.000000
vn -0.000000 0.000000 -1.000000
vn -0.000000 0.000000 -1.000000
vn -0.000000 0.000000 -1.000000
vn -0.000000 0.000000 -1.000000
vn -0.000000 0.000000 -1.000000
vn -0.000000 0.000000 -1.000000
vn -0.000000 0.000000 -1.000000
vn 0.000000 0.000000 -1.000000
vn 0.000000 0.000000 -1.000000
vn -0.000000 -0.000000 -1.000000
vn -0.000000 -0.000000 -1.000000
vn 0.000000 0.000000 -1.000000
vn 0.000000 0.000000 -1.000000
vn -0.000000 -0.000000 -1.000000
vn -0.000000 -0.000000 -1.000000
vn -0.000000 0.000000 -1.000000
vn -0.000000 0.000000 -1.000000
vn -0.000000 0.000000 -1.000000
vn -0.000000 0.000000 -1.000000
vn 0.000000 0.000000 -1.000000
vn 0.000000 0.000000 -1.000000
vn 0.002387 0.999997 -0.000000
vn 0.002387 0.999997 -0.000000
vn 0.002387 0.999997 -0.000000
vn 0.002387 0.999997 -0.000000
vn -1.000000 -0.000001 0.000000
vn -1.000000 -0.000001 0.000000
vn -1.000000 -0.000001 0.000000
vn -1.000000 -0.000001 0.000000
vn 0.013807 -0.999905 0.000000
vn 0.013807 -0.999905 0.000000
vn 0.013807 -0.999905 0.000000
vn 0.013807 -0.999905 0.000000
vn -0.965557 0.260192 -0.000000
vn -0.965557 0.260191 -0.000000
vn -0.965557 0.260191 -0.000000
vn -0.965557 0.260192 -0.000000
vn 0.895107 -0.445851 0.000000
vn 0.895107 -0.445851 0.000000
vn 0.895107 -0.445851 0.000000
vn 0.895107 -0.445851 0.000000
vn -0.589401 0.807841 -0.000000
vn -0.279806 0.960057 -0.000000
vn -0.279806 0.960057 -0.000000
vn -0.589401 0.807841 -0.000000
vn -0.443630 -0.896210 0.000000
vn -0.443630 -0.896210 0.000000
vn -0.443630 -0.896210 0.000000
vn -0.443630 -0.896210 0.000000
vn -0.676022 0.736881 -0.000000
vn -0.676022 0.736881 -0.000000
vn 0.683927 -0.729550 0.000000
vn 0.683927 -0.729550 0.000000
vn 0.683927 -0.729550 0.000000
vn 0.683927 -0.729550 0.000000
vn -0.957741 0.287631 -0.000000
vn -0.957741 0.287631 -0.000000
vn -0.957741 0.287631 -0.000000
vn -0.957741 0.287631 -0.000000
vn 0.982219 -0.187737 0.000000
vn 0.982219 -0.187737 0.000000
vn 0.982219 -0.187737 0.000000
vn 0.982219 -0.187737 0.000000
vn -0.388391 -0.921495 0.000000
vn -0.545696 -0.837983 0.000000
vn -0.545696 -0.837983 0.000000
vn -0.388391 -0.921495 0.000000
vn 0.633602 0.773659 -0.000000
vn 0.633602 0.773659 -0.000000
vn 0.633602 0.773659 -0.000000
vn 0.633602 0.773659 -0.000000
vn -0.315715 -0.948854 0.000000
vn -0.315715 -0.948854 0.000000
vn 0.130921 0.991393 -0.000000
vn 0.250085 0.968224 -0.000000
vn 0.250085 0.968224 -0.000000
vn 0.130921 0.991393 -0.000000
vn -0.444199 -0.895928 0.000000
vn -0.444199 -0.895928 0.000000
vn 0.361344 0.932433 -0.000000
vn 0.361344 0.932433 -0.000000
vn -0.958508 -0.285067 0.000000
vn -0.958508 -0.285067 0.000000
vn -0.958508 -0.285067 0.000000
vn -0.958508 -0.285067 0.000000
vn 0.937574 0.347787 -0.000000
vn 0.937574 0.347787 -0.000000
vn 0.937574 0.347787 -0.000000
vn 0.937574 0.347787 -0.000000
vn -0.965557 0.260192 -0.000000
vn -0.965557 0.260192 -0.000000
vn 0.991433 0.130614 -0.000000
vn 0.991433 0.130614 -0.000000
vn 0.991433 0.130614 -0.000000
vn 0.991433 0.130614 -0.000000
vn -0.012234 -0.999925 0.000000
vn -0.012234 -0.999925 0.000000
vn -0.012234 -0.999925 0.000000
vn -0.012234 -0.999925 0.000000
vn 0.001500 0.999999 -0.000000
vn 0.001500 0.999999 -0.000000
vn 0.001500 0.999999 -0.000000
vn 0.001500 0.999999 -0.000000
vn -1.000000 0.000003 -0.000000
vn -1.000000 0.000003 -0.000000
vn -1.000000 0.000003 -0.000000
vn -1.000000 0.000003 -0.000000
vn 0.816412 0.577470 -0.000000
vn 0.816412 0.577470 -0.000000
vn 0.816412 0.577470 -0.000000
vn 0.816412 0.577470 -0.000000
vn -0.774634 -0.632409 0.000000
vn -0.774634 -0.632409 0.000000
vn -0.774634 -0.632409 0.000000
vn -0.774634 -0.632409 0.000000
vn 0.993512 0.113729 -0.000000
vn 0.993512 0.113729 -0.000000
vn 0.993512 0.113729 -0.000000
vn 0.993512 0.113729 -0.000000
vn -0.998190 -0.060145 0.000000
vn -0.998190 -0.060145 0.000000
vn -0.998190 -0.060145 0.000000
vn -0.998190 -0.060145 0.000000
vn 0.098161 0.995170 -0.000000
vn 0.098161 0.995170 -0.000000
vn 0.098161 0.995170 -0.000000
vn 0.098161 0.995170 -0.000000
vn 0.197012 -0.980401 0.000000
vn 0.197012 -0.980401 0.000000
vn 0.197012 -0.980401 0.000000
vn 0.197012 -0.980401 0.000000
vn 0.767355 0.641222 -0.000000
vn 0.767355 0.641222 -0.000000
vn 0.767355 0.641222 -0.000000
vn 0.767355 0.641222 -0.000000
vn -0.779639 -0.626229 0.000000
vn -0.779639 -0.626229 0.000000
vn -0.779639 -0.626229 0.000000
vn -0.779639 -0.626229 0.000000
vn 0.981413 -0.191908 0.000000
vn 0.981413 -0.191908 0.000000
vn 0.981413 -0.191908 0.000000
vn 0.981413 -0.191908 0.000000
vn -0.976259 0.216606 -0.000000
vn -0.976259 0.216606 -0.000000
vn -0.976259 0.216606 -0.000000
vn -0.976259 0.216606 -0.000000
vn 0.310252 -0.950654 0.000000
vn 0.310252 -0.950654 0.000000
vn 0.310252 -0.950654 0.000000
vn 0.310252 -0.950654 0.000000
vn -0.334397 0.942432 -0.000000
vn -0.334397 0.942432 -0.000000
vn -0.334397 0.942432 -0.000000
vn -0.334397 0.942432 -0.000000
vn 0.856553 -0.516058 0.000000
vn 0.850887 -0.525349 0.000000
vn 0.850887 -0.525349 0.000000
vn 0.856553 -0.516058 0.000000
vn -0.873880 0.486142 -0.000000
vn -0.873880 0.486142 -0.000000
vn -0.873880 0.486142 -0.000000
vn -0.873880 0.486142 -0.000000
vn 0.731772 -0.681549 0.000000
vn 0.731772 -0.681549 0.000000
vn 1.000000 0.000007 -0.000000
vn 1.000000 0.000007 -0.000000
vn 1.000000 0.000007 -0.000000
vn 1.000000 0.000007 -0.000000
vn -0.426072 0.904689 -0.000000
vn -0.426072 0.904689 -0.000000
vn -0.426072 0.904689 -0.000000
vn -0.426072 0.904689 -0.000000
vn 0.242689 0.970104 -0.000000
vn 0.242689 0.970104 -0.000000
vn 0.242689 0.970104 -0.000000
vn 0.242689 0.970104 -0.000000
vn -0.352674 -0.935746 0.000000
vn -0.352674 -0.935746 0.000000
vn -0.352674 -0.935746 0.000000
vn -0.352674 -0.935746 0.000000
vn 0.002431 0.999997 -0.000000
vn 0.002431 0.999997 -0.000000
vn 0.002431 0.999997 -0.000000
vn 0.002431 0.999997 -0.000000
vn 0.013483 -0.999909 0.000000
vn 0.013483 -0.999909 0.000000
vn 0.013483 -0.999909 0.000000
vn 0.013483 -0.999909 0.000000
vn 1.000000 -0.000002 0.000000
vn 1.000000 -0.000002 0.000000
vn 1.000000 -0.000002 0.000000
vn 1.000000 -0.000002 0.000000
s 1
g pPlane2
usemtl initialShadingGroup
f 48/169/1 47/170/2 49/171/3 50/172/4
s 2
f 71/173/5 72/174/6 73/175/7 74/176/8
s 1
f 51/177/9 48/178/1 50/179/4 52/180/10
s 2
f 75/181/11 76/182/12 77/183/13 78/184/14
s 1
f 54/185/15 53/186/16 55/187/17 56/188/18
s 2
f 76/189/12 79/190/19 80/191/20 77/192/13
s 1
f 57/193/21 54/194/15 56/195/18 58/196/22
s 2
f 79/197/19 81/198/23 82/199/24 80/200/20
s 1
f 59/201/25 57/202/21 58/203/22 60/204/26
s 2
f 81/205/23 83/206/27 84/207/28 82/208/24
s 1
f 61/209/29 59/210/25 60/211/26 62/212/30
s 2
f 83/213/27 85/214/31 86/215/32 84/216/28
s 1
f 63/217/33 61/218/29 62/219/30 64/220/34
s 2
f 85/221/31 87/222/35 88/223/36 86/224/32
s 1
f 65/225/37 63/226/33 64/227/34 66/228/38
s 2
f 87/229/35 89/230/39 90/231/40 88/232/36
s 1
f 67/233/41 65/234/37 66/235/38 68/236/42
s 2
f 72/237/6 75/238/11 78/239/14 73/240/7
s 1
f 53/241/16 51/242/9 52/243/10 55/244/17
f 69/245/43 67/246/41 68/247/42 70/248/44
s 2
f 91/249/45 71/250/5 74/251/8 92/252/46
s 4
f 2/85/47 21/88/48 42/87/49 41/86/50
s 5
f 1/89/51 20/92/52 22/91/53 18/90/54
s 4
f 19/93/55 23/96/56 21/95/48 2/94/47
s 5
f 3/97/57 24/100/58 25/99/59 5/98/60
s 4
f 6/101/61 27/104/62 26/103/63 4/102/64
s 5
f 5/105/60 25/108/59 28/107/65 7/106/66
s 4
f 8/109/67 29/112/68 27/111/62 6/110/61
s 5
f 7/113/66 28/116/65 30/115/69 9/114/70
s 4
f 10/117/71 31/120/72 29/119/68 8/118/67
s 5
f 9/121/70 30/124/69 32/123/73 11/122/74
s 4
f 12/125/75 33/128/76 31/127/72 10/126/71
s 5
f 11/129/74 32/132/73 34/131/77 13/130/78
s 4
f 14/133/79 35/136/80 33/135/76 12/134/75
s 5
f 13/137/78 34/140/77 36/139/81 15/138/82
s 4
f 16/141/83 37/144/84 35/143/80 14/142/79
s 5
f 15/145/82 36/148/81 46/147/85 45/146/86
s 4
f 17/149/87 38/152/88 37/151/84 16/150/83
s 5
f 18/153/54 22/156/53 24/155/58 3/154/57
s 4
f 4/157/64 26/160/63 23/159/56 19/158/55
f 39/161/89 40/164/90 38/163/88 17/162/87
s 5
f 43/165/91 44/168/92 20/167/52 1/166/51
s off
f 2/1/93 41/79/94 47/170/95 48/169/96
f 41/79/97 42/80/98 49/171/99 47/170/100
f 42/80/101 21/4/102 50/172/103 49/171/104
s 7
f 19/5/105 2/6/106 48/174/107 51/173/108
s off
f 21/7/109 23/8/110 52/176/111 50/175/112
s 8
f 6/9/113 4/10/114 53/178/115 54/177/116
s off
f 26/11/117 27/12/118 56/180/119 55/179/120
s 8
f 8/13/121 6/14/113 54/182/116 57/181/122
s off
f 27/15/123 29/16/124 58/184/125 56/183/126
f 10/17/127 8/18/128 57/186/129 59/185/130
f 29/19/131 31/20/132 60/188/133 58/187/134
s 9
f 12/21/135 10/22/136 59/190/137 61/189/138
s off
f 31/23/139 33/24/140 62/192/141 60/191/142
s 9
f 14/25/143 12/26/135 61/194/138 63/193/144
s 10
f 33/27/145 35/28/146 64/196/147 62/195/148
s 9
f 16/29/149 14/30/143 63/198/144 65/197/150
s 10
f 35/31/146 37/32/151 66/200/152 64/199/147
s off
f 17/33/153 16/34/154 65/202/155 67/201/156
f 37/35/157 38/36/158 68/204/159 66/203/160
s 7
f 4/37/161 19/38/105 51/206/108 53/205/162
s off
f 23/39/163 26/40/164 55/208/165 52/207/166
f 39/41/167 17/42/168 67/210/169 69/209/170
f 38/43/171 40/44/172 70/212/173 68/211/174
f 40/45/175 39/46/176 69/214/177 70/213/178
f 1/47/179 18/48/180 72/216/181 71/215/182
f 22/49/183 20/50/184 74/218/185 73/217/186
f 3/51/187 5/52/188 76/220/189 75/219/190
f 25/53/191 24/54/192 78/222/193 77/221/194
f 5/55/195 7/56/196 79/224/197 76/223/198
f 28/57/199 25/58/200 77/226/201 80/225/202
f 7/59/203 9/60/204 81/228/205 79/227/206
f 30/61/207 28/83/208 80/230/209 82/229/210
f 9/83/211 11/84/212 83/231/213 81/230/214
f 32/84/215 30/62/216 82/232/217 84/231/218
f 11/63/219 13/64/220 85/234/221 83/233/222
f 34/65/223 32/66/224 84/236/225 86/235/226
s 11
f 13/69/227 15/70/228 87/238/229 85/237/230
s off
f 36/71/231 34/72/232 86/240/233 88/239/234
s 11
f 15/73/228 45/74/235 89/242/236 87/241/229
s off
f 45/75/237 46/76/238 90/244/239 89/243/240
f 46/77/241 36/67/242 88/246/243 90/245/244
f 18/68/245 3/78/246 75/248/247 72/247/248
f 24/78/249 22/77/250 73/245/251 78/248/252
f 43/81/253 1/2/254 71/250/255 91/249/256
f 20/3/257 44/82/258 92/252/259 74/251/260
f 44/82/261 43/81/262 91/249/263 92/252/264
