# This file uses centimeters as units for non-parametric coordinates.

mtllib room3 outline2.mtl
g default
v 5.165094 -3.292990 0.000000
v -5.351660 -3.292990 0.000000
v 5.981314 5.137574 -0.000000
v -3.416054 5.137574 -0.000000
v 7.613755 4.099230 -0.000000
v -5.771430 4.262471 -0.000000
v 7.660397 3.073145 -0.000000
v -5.654827 3.422947 -0.000000
v 7.193985 1.907138 -0.000000
v -7.637075 2.373541 -0.000000
v 7.403870 1.417416 -0.000000
v -7.776999 1.603977 -0.000000
v 6.797535 1.020973 -0.000000
v -7.776999 0.368010 -0.000000
v 6.797535 0.181449 0.000000
v -6.471048 -0.658076 0.000000
v 7.357229 -0.518155 0.000000
v -6.704253 -1.590881 0.000000
v 6.844176 -2.640287 0.000000
v -6.051276 -2.267165 0.000000
v 7.613755 4.099230 0.502782
v -5.771430 4.262471 0.502782
v -3.416054 5.137574 0.502782
v 5.981314 5.137574 0.502782
v 7.660397 3.073145 0.502782
v -5.654827 3.422947 0.502782
v 7.193985 1.907138 0.502782
v -7.637075 2.373541 0.502782
v 7.403870 1.417416 0.502782
v -7.776999 1.603977 0.502782
v 6.797535 1.020973 0.502782
v -7.776999 0.368010 0.502782
v 6.797535 0.181449 0.502782
v -6.471048 -0.658076 0.502782
v 7.357229 -0.518155 0.502782
v -6.704253 -1.590881 0.502782
v 6.844176 -2.640287 0.502782
v -6.051276 -2.267165 0.502782
v 5.165094 -3.292990 0.502782
v -5.351660 -3.292990 0.502782
v -6.243313 4.544383 -0.000000
v -3.538814 5.820442 -0.000000
v -3.538814 5.820442 0.502782
v -6.243313 4.544383 0.502782
v 6.170489 5.787444 -0.000000
v 6.170489 5.787444 0.502782
v 8.155041 4.412637 -0.000000
v 8.155041 4.412637 0.502782
v -6.168869 3.685965 -0.000000
v -6.168869 3.685965 0.502782
v 8.339772 2.958246 -0.000000
v 8.339772 2.958246 0.502782
v -8.148784 2.748099 -0.000000
v -8.148784 2.748099 0.502782
v 7.845224 1.915079 -0.000000
v 7.845224 1.915079 0.502782
v -8.476264 1.667028 -0.000000
v -8.476264 1.667028 0.502782
v 7.920737 1.261255 -0.000000
v 7.920737 1.261255 0.502782
v -8.347240 0.090858 -0.000000
v -8.347240 0.090858 0.502782
v 7.342902 0.725968 -0.000000
v 7.342902 0.725968 0.502782
v -7.030765 -0.849742 0.000000
v -7.030765 -0.849742 0.502782
v 7.425247 0.401634 0.000000
v 7.425247 0.401634 0.502782
v -7.299774 -1.750217 0.000000
v -7.299774 -1.750217 0.502782
v 7.975070 -0.380796 0.000000
v 7.975070 -0.380796 0.502782
v -6.596048 -2.710580 0.000000
v -6.596048 -2.710580 0.502782
v 7.314490 -3.051632 0.000000
v 7.314490 -3.051632 0.502782
v 5.292804 -3.973977 0.000000
v -5.642861 -3.844050 0.000000
v -5.642861 -3.844050 0.502782
v 5.292804 -3.973977 0.502782
v 0.954327 5.137574 0.502782
v 0.954327 5.805134 0.502782
v 0.954327 5.805134 -0.000000
v 0.954327 5.137574 -0.000000
v -1.116691 5.137574 0.502782
v -1.116691 5.812287 0.502782
v -1.116691 5.812287 -0.000000
v -1.116691 5.137574 -0.000000
v -1.075692 -3.897609 0.502782
v -1.075691 -3.292990 0.502782
v -1.075691 -3.292990 0.000000
v -1.075692 -3.897609 0.000000
v 1.040053 -3.923237 0.502782
v 1.040053 -3.292990 0.502782
v 1.040053 -3.292990 0.000000
v 1.040053 -3.923237 0.000000
vt 0.000000 0.000000
vt 1.000000 0.000000
vt 0.000000 1.000000
vt 1.000000 1.000000
vt 0.000000 0.876836
vt 1.000000 0.876836
vt 0.000000 0.755126
vt 1.000000 0.755126
vt 0.000000 0.616819
vt 1.000000 0.616819
vt 0.000000 0.580859
vt 1.000000 0.580859
vt 0.000000 0.511705
vt 1.000000 0.511705
vt 0.000000 0.412124
vt 1.000000 0.412124
vt 0.000000 0.329140
vt 1.000000 0.329140
vt 0.000000 0.077421
vt 1.000000 0.077421
vt 1.000000 0.876836
vt 1.000000 1.000000
vt 0.000000 1.000000
vt 0.000000 0.876836
vt 1.000000 0.755126
vt 0.000000 0.755126
vt 1.000000 0.616819
vt 0.000000 0.616819
vt 1.000000 0.580859
vt 0.000000 0.580859
vt 1.000000 0.511705
vt 0.000000 0.511705
vt 1.000000 0.412124
vt 0.000000 0.412124
vt 1.000000 0.329140
vt 0.000000 0.329140
vt 1.000000 0.077421
vt 0.000000 0.077421
vt 0.000000 0.000000
vt 1.000000 0.000000
vt 1.000000 0.876836
vt 1.000000 1.000000
vt 1.000000 1.000000
vt 1.000000 0.876836
vt 0.000000 1.000000
vt 0.000000 1.000000
vt 0.000000 0.876836
vt 0.000000 0.876836
vt 1.000000 0.755126
vt 1.000000 0.755126
vt 0.000000 0.755126
vt 0.000000 0.755126
vt 1.000000 0.616819
vt 1.000000 0.616819
vt 0.000000 0.616819
vt 0.000000 0.616819
vt 1.000000 0.580859
vt 1.000000 0.580859
vt 0.000000 0.580859
vt 0.000000 0.580859
vt 1.000000 0.511705
vt 1.000000 0.511705
vt 0.000000 0.511705
vt 0.000000 0.511705
vt 1.000000 0.412124
vt 1.000000 0.412124
vt 0.000000 0.412124
vt 0.000000 0.412124
vt 1.000000 0.329140
vt 1.000000 0.329140
vt 0.000000 0.329140
vt 0.000000 0.329140
vt 1.000000 0.077421
vt 1.000000 0.077421
vt 0.000000 0.077421
vt 0.000000 0.077421
vt 0.000000 0.000000
vt 1.000000 0.000000
vt 1.000000 0.000000
vt 0.000000 0.000000
vt 1.000000 0.876836
vt 1.000000 1.000000
vt 1.000000 1.000000
vt 1.000000 0.876836
vt 0.000000 1.000000
vt 0.000000 1.000000
vt 0.000000 0.876836
vt 0.000000 0.876836
vt 1.000000 0.755126
vt 1.000000 0.755126
vt 0.000000 0.755126
vt 0.000000 0.755126
vt 1.000000 0.616819
vt 1.000000 0.616819
vt 0.000000 0.616819
vt 0.000000 0.616819
vt 1.000000 0.580859
vt 1.000000 0.580859
vt 0.000000 0.580859
vt 0.000000 0.580859
vt 1.000000 0.511705
vt 1.000000 0.511705
vt 0.000000 0.511705
vt 0.000000 0.511705
vt 1.000000 0.412124
vt 1.000000 0.412124
vt 0.000000 0.412124
vt 0.000000 0.412124
vt 1.000000 0.329140
vt 1.000000 0.329140
vt 0.000000 0.329140
vt 0.000000 0.329140
vt 1.000000 0.077421
vt 1.000000 0.077421
vt 0.000000 0.077421
vt 0.000000 0.077421
vt 0.000000 0.000000
vt 1.000000 0.000000
vt 1.000000 0.000000
vt 0.000000 0.000000
vt 0.536103 1.000000
vt 0.536103 1.000000
vt 0.536103 1.000000
vt 0.536103 1.000000
vt 0.536103 1.000000
vt 0.536103 1.000000
vt 0.752888 1.000000
vt 0.752888 1.000000
vt 0.752888 1.000000
vt 0.752888 1.000000
vt 0.752888 1.000000
vt 0.752888 1.000000
vt 0.587779 0.000000
vt 0.587779 0.000000
vt 0.587779 0.000000
vt 0.587779 0.000000
vt 0.587779 0.000000
vt 0.587779 0.000000
vt 0.390529 0.000000
vt 0.390529 0.000000
vt 0.390529 0.000000
vt 0.390529 0.000000
vt 0.390529 0.000000
vt 0.390529 0.000000
vn -0.426715 0.904386 0.000000
vn -0.426715 0.904386 0.000000
vn -0.240084 0.970752 0.000000
vn -0.240084 0.970752 0.000000
vn 0.003391 0.999994 0.000000
vn 0.003391 0.999994 0.000000
vn 0.003391 0.999994 0.000000
vn 0.003391 0.999994 0.000000
vn 0.569458 0.822020 0.000000
vn 0.569458 0.822020 0.000000
vn 0.569458 0.822020 0.000000
vn 0.569458 0.822020 0.000000
vn -0.996261 -0.086399 0.000000
vn -0.996261 -0.086399 0.000000
vn -0.996261 -0.086399 0.000000
vn -0.996261 -0.086399 0.000000
vn 0.992030 0.126004 0.000000
vn 0.992030 0.126004 0.000000
vn 0.992394 -0.123104 0.000000
vn 0.992394 -0.123104 0.000000
vn -0.428091 0.903736 0.000000
vn -0.428091 0.903736 0.000000
vn -0.428091 0.903736 0.000000
vn -0.428091 0.903736 0.000000
vn 0.903598 -0.428381 0.000000
vn 0.903598 -0.428381 0.000000
vn -0.997223 0.074478 0.000000
vn -0.997223 0.074478 0.000000
vn -0.957053 0.289912 0.000000
vn -0.957053 0.289912 0.000000
vn 0.993397 0.114731 0.000000
vn 0.993397 0.114731 0.000000
vn 0.993397 0.114731 0.000000
vn 0.993397 0.114731 0.000000
vn -0.996666 -0.081586 0.000000
vn -0.996666 -0.081586 0.000000
vn 0.679582 -0.733600 0.000000
vn 0.679582 -0.733600 0.000000
vn 0.679582 -0.733600 0.000000
vn 0.679582 -0.733600 0.000000
vn -0.581345 -0.813658 0.000000
vn -0.581345 -0.813658 0.000000
vn -0.581345 -0.813658 0.000000
vn -0.581345 -0.813658 0.000000
vn 0.969249 0.246081 0.000000
vn 0.969249 0.246081 0.000000
vn 0.969249 0.246081 0.000000
vn 0.969249 0.246081 0.000000
vn -0.958158 0.286241 0.000000
vn -0.958158 0.286241 0.000000
vn -0.958158 0.286241 0.000000
vn -0.958158 0.286241 0.000000
vn 0.818188 0.574951 0.000000
vn 0.818188 0.574951 0.000000
vn 0.818188 0.574951 0.000000
vn 0.818188 0.574951 0.000000
vn -0.784174 -0.620541 0.000000
vn -0.784174 -0.620541 0.000000
vn -0.806621 -0.591069 0.000000
vn -0.806621 -0.591069 0.000000
vn 0.970749 -0.240096 0.000000
vn 0.970749 -0.240096 0.000000
vn 0.970749 -0.240096 0.000000
vn 0.970749 -0.240096 0.000000
vn 0.137593 -0.990489 0.000000
vn 0.137593 -0.990489 0.000000
vn -0.011930 -0.999929 0.000000
vn -0.011930 -0.999929 0.000000
vn -0.765349 -0.643616 0.000000
vn -0.765349 -0.643616 0.000000
vn 0.415069 -0.909790 0.000000
vn 0.415069 -0.909790 0.000000
vn 0.348273 -0.937393 0.000000
vn 0.184766 -0.982783 0.000000
vn 0.184766 -0.982783 0.000000
vn 0.348273 -0.937393 0.000000
vn 0.000000 -1.000000 0.000000
vn 0.000000 -1.000000 0.000000
vn 0.000000 -1.000000 0.000000
vn 0.000000 -1.000000 0.000000
vn -0.536698 -0.843775 0.000000
vn -0.536698 -0.843775 0.000000
vn -0.536698 -0.843775 0.000000
vn -0.536698 -0.843775 0.000000
vn 0.990492 0.137571 0.000000
vn 0.990492 0.137571 0.000000
vn 0.990492 0.137571 0.000000
vn 0.990492 0.137571 0.000000
vn -0.998969 -0.045409 0.000000
vn -0.982154 0.188076 0.000000
vn -0.982154 0.188076 0.000000
vn -0.998969 -0.045409 0.000000
vn 0.467881 -0.883792 0.000000
vn 0.467881 -0.883792 0.000000
vn 0.467881 -0.883792 0.000000
vn 0.467881 -0.883792 0.000000
vn -0.928474 0.371397 0.000000
vn -0.928474 0.371397 0.000000
vn 0.997575 -0.069600 0.000000
vn 0.983869 -0.178889 0.000000
vn 0.983869 -0.178889 0.000000
vn 0.997575 -0.069600 0.000000
vn -0.919142 -0.393927 0.000000
vn -0.919142 -0.393927 0.000000
vn -0.919142 -0.393927 0.000000
vn -0.919142 -0.393927 0.000000
vn 1.000000 0.000000 0.000000
vn 1.000000 0.000000 0.000000
vn -0.547242 0.836974 0.000000
vn -0.547242 0.836974 0.000000
vn -0.547242 0.836974 0.000000
vn -0.547242 0.836974 0.000000
vn 0.617815 0.786324 0.000000
vn 0.617815 0.786324 0.000000
vn 0.617815 0.786324 0.000000
vn 0.617815 0.786324 0.000000
vn -1.000000 0.000000 0.000000
vn -1.000000 0.000000 0.000000
vn -1.000000 0.000000 0.000000
vn -1.000000 0.000000 0.000000
vn 0.970142 -0.242539 0.000000
vn 0.970142 -0.242539 0.000000
vn 0.970142 -0.242539 0.000000
vn 0.970142 -0.242539 0.000000
vn -0.780863 -0.624702 0.000000
vn -0.780863 -0.624702 0.000000
vn -0.780863 -0.624702 0.000000
vn -0.780863 -0.624702 0.000000
vn 0.782905 0.622141 0.000000
vn 0.719395 0.694602 0.000000
vn 0.719395 0.694602 0.000000
vn 0.782905 0.622141 0.000000
vn -0.971997 0.234993 0.000000
vn -0.971997 0.234993 0.000000
vn -0.971997 0.234993 0.000000
vn -0.971997 0.234993 0.000000
vn -0.111751 0.993736 0.000000
vn 0.000000 1.000000 0.000000
vn 0.000000 1.000000 0.000000
vn -0.111751 0.993736 0.000000
vn 0.826156 0.563441 0.000000
vn 0.826156 0.563441 0.000000
vn -0.362315 0.932056 0.000000
vn -0.362315 0.932056 0.000000
vn -0.000000 -0.000000 -1.000000
vn -0.000000 -0.000000 -1.000000
vn -0.000000 -0.000000 -1.000000
vn -0.000000 -0.000000 -1.000000
vn -0.000000 0.000000 1.000000
vn -0.000000 0.000000 1.000000
vn -0.000000 0.000000 1.000000
vn -0.000000 0.000000 1.000000
vn 0.000000 -0.000000 -1.000000
vn 0.000000 -0.000000 -1.000000
vn 0.000000 -0.000000 -1.000000
vn 0.000000 -0.000000 -1.000000
vn 0.000000 0.000000 1.000000
vn 0.000000 0.000000 1.000000
vn 0.000000 0.000000 1.000000
vn 0.000000 0.000000 1.000000
vn 0.000000 -0.000000 -1.000000
vn 0.000000 -0.000000 -1.000000
vn -0.000000 0.000000 1.000000
vn -0.000000 0.000000 1.000000
vn -0.000000 -0.000000 -1.000000
vn -0.000000 -0.000000 -1.000000
vn -0.000000 0.000000 1.000000
vn -0.000000 0.000000 1.000000
vn -0.000000 -0.000000 -1.000000
vn -0.000000 -0.000000 -1.000000
vn -0.000000 0.000000 1.000000
vn -0.000000 0.000000 1.000000
vn 0.000000 -0.000000 -1.000000
vn 0.000000 -0.000000 -1.000000
vn -0.000000 0.000000 1.000000
vn -0.000000 0.000000 1.000000
vn -0.000000 -0.000000 -1.000000
vn -0.000000 -0.000000 -1.000000
vn -0.000000 0.000000 1.000000
vn -0.000000 0.000000 1.000000
vn 0.000000 -0.000000 -1.000000
vn 0.000000 -0.000000 -1.000000
vn 0.000000 0.000000 1.000000
vn 0.000000 0.000000 1.000000
vn -0.000000 -0.000000 -1.000000
vn -0.000000 -0.000000 -1.000000
vn 0.000000 0.000000 1.000000
vn 0.000000 0.000000 1.000000
vn 0.000000 -0.000000 -1.000000
vn 0.000000 -0.000000 -1.000000
vn 0.000000 0.000000 1.000000
vn 0.000000 0.000000 1.000000
vn -0.000000 -0.000000 -1.000000
vn -0.000000 -0.000000 -1.000000
vn 0.000000 0.000000 1.000000
vn 0.000000 0.000000 1.000000
vn 0.000000 -0.000000 -1.000000
vn 0.000000 -0.000000 -1.000000
vn 0.000000 0.000000 1.000000
vn 0.000000 0.000000 1.000000
vn -0.000000 -0.000000 -1.000000
vn -0.000000 -0.000000 -1.000000
vn 0.000000 0.000000 1.000000
vn 0.000000 0.000000 1.000000
vn 0.000000 -0.000000 -1.000000
vn 0.000000 -0.000000 -1.000000
vn 0.000000 0.000000 1.000000
vn 0.000000 0.000000 1.000000
vn -0.000000 -0.000000 -1.000000
vn -0.000000 -0.000000 -1.000000
vn 0.000000 0.000000 1.000000
vn 0.000000 0.000000 1.000000
vn 0.000000 -0.000000 -1.000000
vn 0.000000 -0.000000 -1.000000
vn 0.000000 0.000000 1.000000
vn 0.000000 0.000000 1.000000
vn -0.000000 -0.000000 -1.000000
vn -0.000000 -0.000000 -1.000000
vn 0.000000 0.000000 1.000000
vn 0.000000 0.000000 1.000000
vn -0.000000 0.000000 -1.000000
vn -0.000000 0.000000 -1.000000
vn -0.000000 0.000000 -1.000000
vn -0.000000 0.000000 -1.000000
vn 0.000000 0.000000 1.000000
vn 0.000000 0.000000 1.000000
vn 0.000000 0.000000 1.000000
vn 0.000000 0.000000 1.000000
vn 0.000000 -0.000000 -1.000000
vn 0.000000 -0.000000 -1.000000
vn 0.000000 0.000000 1.000000
vn 0.000000 0.000000 1.000000
vn 0.000000 0.000000 1.000000
vn 0.000000 0.000000 1.000000
vn 0.003367 0.999994 0.000000
vn 0.003367 0.999994 0.000000
vn 0.000000 -0.000000 -1.000000
vn 0.000000 -0.000000 -1.000000
vn 0.000000 -1.000000 0.000000
vn 0.000000 -1.000000 0.000000
vn 0.000000 0.000000 1.000000
vn 0.000000 0.000000 1.000000
vn 0.000000 1.000000 0.000000
vn 0.000000 1.000000 0.000000
vn 0.000000 1.000000 0.000000
vn 0.000000 1.000000 0.000000
vn -0.000000 0.000000 -1.000000
vn -0.000000 0.000000 -1.000000
vn -0.011726 -0.999931 0.000000
vn -0.011726 -0.999931 0.000000
vn -0.011726 -0.999931 0.000000
vn -0.011726 -0.999931 0.000000
vn -1.000000 0.000000 0.000000
vn -1.000000 0.000000 0.000000
vn -1.000000 0.000000 0.000000
vn -1.000000 0.000000 0.000000
vn 1.000000 0.000001 0.000000
vn 1.000000 0.000001 0.000000
vn 1.000000 0.000001 0.000000
vn 1.000000 0.000001 0.000000
vn 1.000000 -0.000002 0.000000
vn 1.000000 -0.000002 0.000000
vn 1.000000 -0.000002 0.000000
vn 1.000000 -0.000002 0.000000
vn -1.000000 0.000000 0.000000
vn -1.000000 0.000000 0.000000
vn -1.000000 0.000000 0.000000
vn -1.000000 0.000000 0.000000
s 1
g pPlane1
usemtl initialShadingGroup
f 41/81/1 44/84/2 43/83/3 42/82/4
s off
f 83/124/5 82/123/6 46/86/7 45/85/8
f 45/85/9 46/86/10 48/88/11 47/87/12
f 49/89/13 50/90/14 44/84/15 41/81/16
s 2
f 47/87/17 48/88/18 52/92/19 51/91/20
s off
f 53/93/21 54/94/22 50/90/23 49/89/24
s 2
f 51/91/20 52/92/19 56/96/25 55/95/26
s 3
f 57/97/27 58/98/28 54/94/29 53/93/30
s off
f 55/95/31 56/96/32 60/100/33 59/99/34
s 3
f 61/101/35 62/102/36 58/98/28 57/97/27
s off
f 59/99/37 60/100/38 64/104/39 63/103/40
f 65/105/41 66/106/42 62/102/43 61/101/44
f 63/103/45 64/104/46 68/108/47 67/107/48
f 69/109/49 70/110/50 66/106/51 65/105/52
f 67/107/53 68/108/54 72/112/55 71/111/56
s 4
f 73/113/57 74/114/58 70/110/59 69/109/60
s off
f 71/111/61 72/112/62 76/116/63 75/115/64
s 5
f 77/117/65 80/120/66 93/139/67 96/144/68
s 4
f 78/118/69 79/119/70 74/114/58 73/113/57
s 5
f 75/115/71 76/116/72 80/120/66 77/117/65
s 6
f 6/41/73 4/42/74 23/43/75 22/44/76
s off
f 84/125/77 3/45/78 24/46/79 81/122/80
f 3/45/81 5/47/82 21/48/83 24/46/84
f 8/49/85 6/41/86 22/44/87 26/50/88
s 7
f 5/47/89 7/51/90 25/52/91 21/48/92
s off
f 10/53/93 8/49/94 26/50/95 28/54/96
s 7
f 7/51/90 9/55/97 27/56/98 25/52/91
s 8
f 12/57/99 10/53/100 28/54/101 30/58/102
s off
f 9/55/103 11/59/104 29/60/105 27/56/106
s 8
f 14/61/107 12/57/99 30/58/102 32/62/108
s off
f 11/59/109 13/63/110 31/64/111 29/60/112
f 16/65/113 14/61/114 32/62/115 34/66/116
f 13/63/117 15/67/118 33/68/119 31/64/120
f 18/69/121 16/65/122 34/66/123 36/70/124
f 15/67/125 17/71/126 35/72/127 33/68/128
s 9
f 20/73/129 18/69/130 36/70/131 38/74/132
s off
f 17/71/133 19/75/134 37/76/135 35/72/136
s 10
f 1/77/137 95/143/138 94/140/139 39/80/140
s 9
f 2/78/141 20/73/129 38/74/132 40/79/142
s 10
f 19/75/143 1/77/137 39/80/140 37/76/144
s 11
f 6/6/145 41/81/146 42/82/147 4/4/148
s 12
f 23/22/149 43/83/150 44/84/151 22/21/152
s 13
f 84/126/153 83/124/154 45/85/155 3/3/156
s 14
f 24/23/157 46/86/158 82/123/159 81/121/160
s 13
f 3/3/156 45/85/155 47/87/161 5/5/162
s 14
f 21/24/163 48/88/164 46/86/158 24/23/157
s 11
f 8/8/165 49/89/166 41/81/146 6/6/145
s 12
f 22/21/152 44/84/151 50/90/167 26/25/168
s 13
f 5/5/162 47/87/161 51/91/169 7/7/170
s 14
f 25/26/171 52/92/172 48/88/164 21/24/163
s 11
f 10/10/173 53/93/174 49/89/166 8/8/165
s 12
f 26/25/168 50/90/167 54/94/175 28/27/176
s 13
f 7/7/170 51/91/169 55/95/177 9/9/178
s 14
f 27/28/179 56/96/180 52/92/172 25/26/171
s 11
f 12/12/181 57/97/182 53/93/174 10/10/173
s 12
f 28/27/176 54/94/175 58/98/183 30/29/184
s 13
f 9/9/178 55/95/177 59/99/185 11/11/186
s 14
f 29/30/187 60/100/188 56/96/180 27/28/179
s 11
f 14/14/189 61/101/190 57/97/182 12/12/181
s 12
f 30/29/184 58/98/183 62/102/191 32/31/192
s 13
f 11/11/186 59/99/185 63/103/193 13/13/194
s 14
f 31/32/195 64/104/196 60/100/188 29/30/187
s 11
f 16/16/197 65/105/198 61/101/190 14/14/189
s 12
f 32/31/192 62/102/191 66/106/199 34/33/200
s 13
f 13/13/194 63/103/193 67/107/201 15/15/202
s 14
f 33/34/203 68/108/204 64/104/196 31/32/195
s 11
f 18/18/205 69/109/206 65/105/198 16/16/197
s 12
f 34/33/200 66/106/199 70/110/207 36/35/208
s 13
f 15/15/202 67/107/201 71/111/209 17/17/210
s 14
f 35/36/211 72/112/212 68/108/204 33/34/203
s 11
f 20/20/213 73/113/214 69/109/206 18/18/205
s 12
f 36/35/208 70/110/207 74/114/215 38/37/216
s 13
f 17/17/210 71/111/209 75/115/217 19/19/218
s 14
f 37/38/219 76/116/220 72/112/212 35/36/211
s 13
f 1/1/221 77/117/222 96/144/223 95/142/224
s 14
f 94/141/225 93/139/226 80/120/227 39/39/228
s 11
f 2/2/229 78/118/230 73/113/214 20/20/213
s 12
f 38/37/216 74/114/215 79/119/231 40/40/232
s 13
f 19/19/218 75/115/217 77/117/222 1/1/221
s 14
f 39/39/228 80/120/227 76/116/220 37/38/219
s 12
f 85/127/233 86/129/234 43/83/150 23/22/149
s 1
f 42/82/4 43/83/3 86/129/235 87/130/236
s 11
f 4/4/148 42/82/147 87/130/237 88/132/238
s 6
f 4/42/74 88/131/239 85/128/240 23/43/75
s 12
f 40/40/232 79/119/231 89/133/241 90/135/242
s off
f 91/137/243 2/78/244 40/79/245 90/134/246
s 11
f 92/138/247 78/118/230 2/2/229 91/136/248
s off
f 89/133/249 79/119/250 78/118/251 92/138/252
f 82/123/253 83/124/254 84/126/255 81/122/256
f 86/129/257 85/127/258 88/131/259 87/130/260
f 90/134/261 89/133/262 92/138/263 91/136/264
f 94/141/265 95/143/266 96/144/267 93/139/268
