# This file uses centimeters as units for non-parametric coordinates.

mtllib room4 outline.mtl
g default
v 4.703175 -3.303597 0.306573
v -4.322222 -3.303597 0.306573
v 4.703175 -3.303597 -0.693427
v -4.322222 -3.303597 -0.693427
v 3.655556 5.195035 -0.693427
v -4.322222 5.195035 -0.693427
v 3.655556 5.195035 0.306573
v -4.322222 5.195035 0.306573
v -5.750794 1.928294 -0.693427
v 6.290477 2.023533 -0.693427
v 6.290477 2.023533 0.306573
v -5.750794 1.928294 0.306573
v -3.655556 -1.243207 -0.693427
v 4.004762 -0.608286 -0.693427
v 4.004762 -0.608286 0.306573
v -3.655556 -1.243207 0.306573
v -5.877778 3.164322 -0.693427
v 5.655556 4.307179 -0.693427
v 5.655556 4.307179 0.306573
v -5.877778 3.164322 0.306573
v -4.988889 2.593927 -0.693427
v 5.782540 3.355832 -0.693427
v 5.782540 3.355832 0.306573
v -4.988889 2.593927 0.306573
v -6.480953 0.722979 -0.693427
v 5.528572 0.659487 -0.693427
v 5.528572 0.659487 0.306573
v -6.480953 0.722979 0.306573
v -3.750793 -0.101384 -0.693427
v 4.036508 0.247823 -0.693427
v 4.036508 0.247823 0.306573
v -3.750793 -0.101384 0.306573
v -5.814286 -1.527887 -0.693427
v 5.465080 -1.273919 -0.693427
v 5.465080 -1.273919 0.306573
v -5.814286 -1.527887 0.306573
v -5.846032 -2.542726 -0.693427
v 5.401587 -2.828440 -0.693427
v 5.401587 -2.828440 0.306573
v -5.846032 -2.542726 0.306573
v -5.926264 4.638707 -0.693427
v 4.749160 4.709554 -0.693427
v 4.749160 4.709554 0.306573
v -5.926264 4.638707 0.306573
v 4.937050 -4.063139 0.306573
v -4.507962 -4.091359 0.306573
v -4.507962 -4.091359 -0.693427
v 4.937050 -4.063139 -0.693427
v 3.824255 5.990829 -0.693427
v -4.458464 6.003636 -0.693427
v -4.458464 6.003636 0.306573
v 3.824255 5.990829 0.306573
v -6.447347 -2.901710 0.306573
v -6.447347 -2.901710 -0.693427
v 6.050896 -3.189172 0.306573
v 6.050896 -3.189172 -0.693427
v 6.583164 3.558957 0.306573
v 7.041969 1.968895 0.306573
v 7.041969 1.968895 -0.693427
v 6.583164 3.558957 -0.693427
v -6.379961 2.456836 0.306573
v -6.379961 2.456836 -0.693427
v -5.486988 2.557114 0.306573
v -5.486988 2.557114 -0.693427
v 4.562584 -0.168388 0.306573
v 4.592702 -0.245364 0.306573
v 4.592702 -0.245364 -0.693427
v 4.562584 -0.168388 -0.693427
v -4.124255 -0.865557 0.306573
v -4.124255 -0.865557 -0.693427
v -4.285317 -0.533973 0.306573
v -4.285317 -0.533973 -0.693427
v 5.086559 5.469586 0.306573
v 6.236379 4.742204 0.306573
v 6.236379 4.742204 -0.693427
v 5.086559 5.469586 -0.693427
v -6.517879 2.800728 0.306573
v -6.517879 2.800728 -0.693427
v -6.478060 5.017865 0.306573
v -6.478060 5.017865 -0.693427
v 6.002146 0.055931 0.306573
v 6.002146 0.055931 -0.693427
v -6.956753 0.540376 0.306573
v -6.956753 0.540376 -0.693427
v 6.052960 -0.912557 0.306573
v 6.052960 -0.912557 -0.693427
v -6.284221 -1.102678 0.306573
v -6.284221 -1.102678 -0.693427
v -1.028165 -3.303597 0.306573
v -1.028165 -4.081009 0.306573
v -1.028165 -4.081009 -0.693427
v -1.028165 -3.303597 -0.693427
v 1.043377 -3.303597 0.306573
v 1.043378 -4.074680 0.306573
v 1.043378 -4.074680 -0.693427
v 1.043377 -3.303597 -0.693427
v -0.978552 5.998261 0.306573
v -0.978551 5.195035 0.306573
v -0.978551 5.195035 -0.693427
v -0.978552 5.998261 -0.693427
v 1.076457 5.995024 0.306573
v 1.076457 5.195035 0.306573
v 1.076457 5.195035 -0.693427
v 1.076457 5.995024 -0.693427
vt 0.375000 0.000000
vt 0.625000 0.000000
vt 0.375000 0.250000
vt 0.625000 0.250000
vt 0.375000 0.500000
vt 0.625000 0.500000
vt 0.375000 0.750000
vt 0.625000 0.750000
vt 0.875000 0.000000
vt 0.875000 0.250000
vt 0.125000 0.000000
vt 0.125000 0.250000
vt 0.791667 0.250000
vt 0.208333 0.250000
vt 0.208333 0.000000
vt 0.791667 0.000000
vt 0.708333 0.250000
vt 0.291667 0.250000
vt 0.291667 0.000000
vt 0.708333 0.000000
vt 0.847222 0.250000
vt 0.152778 0.250000
vt 0.152778 0.000000
vt 0.847222 0.000000
vt 0.819444 0.250000
vt 0.180556 0.250000
vt 0.180556 0.000000
vt 0.819444 0.000000
vt 0.763889 0.250000
vt 0.236111 0.250000
vt 0.236111 0.000000
vt 0.763889 0.000000
vt 0.736111 0.250000
vt 0.263889 0.250000
vt 0.263889 0.000000
vt 0.736111 0.000000
vt 0.680556 0.250000
vt 0.319444 0.250000
vt 0.319444 0.000000
vt 0.680556 0.000000
vt 0.652778 0.250000
vt 0.347222 0.250000
vt 0.347222 0.000000
vt 0.652778 0.000000
vt 0.859811 0.250000
vt 0.140189 0.250000
vt 0.140189 0.000000
vt 0.859811 0.000000
vt 0.375000 0.000000
vt 0.625000 0.000000
vt 0.625000 0.250000
vt 0.375000 0.250000
vt 0.375000 0.500000
vt 0.625000 0.500000
vt 0.625000 0.750000
vt 0.375000 0.750000
vt 0.652778 0.000000
vt 0.652778 0.250000
vt 0.347222 0.000000
vt 0.347222 0.250000
vt 0.180556 0.000000
vt 0.208333 0.000000
vt 0.208333 0.250000
vt 0.180556 0.250000
vt 0.791667 0.250000
vt 0.791667 0.000000
vt 0.819444 0.000000
vt 0.819444 0.250000
vt 0.263889 0.000000
vt 0.291667 0.000000
vt 0.291667 0.250000
vt 0.263889 0.250000
vt 0.708333 0.250000
vt 0.708333 0.000000
vt 0.736111 0.000000
vt 0.736111 0.250000
vt 0.140189 0.000000
vt 0.152778 0.000000
vt 0.152778 0.250000
vt 0.140189 0.250000
vt 0.847222 0.250000
vt 0.847222 0.000000
vt 0.859811 0.000000
vt 0.859811 0.250000
vt 0.236111 0.000000
vt 0.236111 0.250000
vt 0.763889 0.250000
vt 0.763889 0.000000
vt 0.319444 0.000000
vt 0.319444 0.250000
vt 0.680556 0.250000
vt 0.680556 0.000000
vt 0.125000 0.000000
vt 0.125000 0.250000
vt 0.875000 0.000000
vt 0.875000 0.250000
vt 0.375000 0.000000
vt 0.625000 0.000000
vt 0.625000 0.250000
vt 0.375000 0.250000
vt 0.375000 0.500000
vt 0.625000 0.500000
vt 0.625000 0.750000
vt 0.375000 0.750000
vt 0.652778 0.000000
vt 0.652778 0.250000
vt 0.347222 0.000000
vt 0.347222 0.250000
vt 0.180556 0.000000
vt 0.208333 0.000000
vt 0.208333 0.250000
vt 0.180556 0.250000
vt 0.791667 0.000000
vt 0.819444 0.000000
vt 0.819444 0.250000
vt 0.791667 0.250000
vt 0.263889 0.000000
vt 0.291667 0.000000
vt 0.291667 0.250000
vt 0.263889 0.250000
vt 0.708333 0.000000
vt 0.736111 0.000000
vt 0.736111 0.250000
vt 0.708333 0.250000
vt 0.140189 0.000000
vt 0.152778 0.000000
vt 0.152778 0.250000
vt 0.140189 0.250000
vt 0.847222 0.000000
vt 0.859811 0.000000
vt 0.859811 0.250000
vt 0.847222 0.250000
vt 0.236111 0.000000
vt 0.236111 0.250000
vt 0.763889 0.000000
vt 0.763889 0.250000
vt 0.319444 0.000000
vt 0.319444 0.250000
vt 0.680556 0.000000
vt 0.680556 0.250000
vt 0.125000 0.000000
vt 0.125000 0.250000
vt 0.875000 0.000000
vt 0.875000 0.250000
vt 0.533315 0.000000
vt 0.533315 0.000000
vt 0.533315 0.000000
vt 0.533315 0.250000
vt 0.533315 0.250000
vt 0.533315 0.250000
vt 0.477237 0.000000
vt 0.477237 0.000000
vt 0.477237 0.000000
vt 0.477237 0.250000
vt 0.477237 0.250000
vt 0.477237 0.250000
vt 0.520090 0.750000
vt 0.520090 0.750000
vt 0.520090 0.750000
vt 0.520090 0.500000
vt 0.520090 0.500000
vt 0.520090 0.500000
vt 0.456899 0.750000
vt 0.456899 0.750000
vt 0.456899 0.750000
vt 0.456899 0.500000
vt 0.456899 0.500000
vt 0.456899 0.500000
vn 0.002964 -0.999996 -0.000000
vn 0.002964 -0.999996 -0.000000
vn 0.002964 -0.999996 -0.000000
vn 0.002964 -0.999996 -0.000000
vn 0.001527 0.999999 0.000000
vn 0.001527 0.999999 0.000000
vn 0.001527 0.999999 0.000000
vn 0.001527 0.999999 0.000000
vn -0.522880 -0.852407 -0.000000
vn -0.859636 -0.510907 -0.000000
vn -0.859636 -0.510907 -0.000000
vn -0.522880 -0.852407 -0.000000
vn 0.942620 -0.333868 0.000000
vn 0.617299 -0.786729 -0.000000
vn 0.617299 -0.786729 -0.000000
vn 0.942620 -0.333868 0.000000
vn 0.960306 0.278949 0.000000
vn 0.986522 -0.163626 0.000000
vn 0.986522 -0.163626 0.000000
vn 0.960306 0.278949 0.000000
vn -0.808155 0.588970 0.000000
vn -0.808155 0.588970 0.000000
vn -0.928140 -0.372231 -0.000000
vn -0.928140 -0.372231 -0.000000
vn 0.209045 -0.977906 -0.000000
vn 0.446724 0.894672 0.000000
vn 0.446724 0.894672 0.000000
vn 0.209045 -0.977906 -0.000000
vn -0.273649 0.961830 0.000000
vn -0.273649 0.961830 0.000000
vn -0.444602 -0.895728 -0.000000
vn -0.444602 -0.895728 -0.000000
vn 0.459706 0.888071 0.000000
vn 0.787239 0.616648 0.000000
vn 0.787239 0.616648 0.000000
vn 0.459706 0.888071 0.000000
vn -0.927594 -0.373590 -0.000000
vn -0.927594 -0.373590 -0.000000
vn -0.841130 0.540832 0.000000
vn -0.841130 0.540832 0.000000
vn 0.652919 -0.757428 -0.000000
vn 0.652919 -0.757428 -0.000000
vn -0.819093 -0.573661 -0.000000
vn -0.819093 -0.573661 -0.000000
vn 0.896090 0.443872 0.000000
vn 0.896090 0.443872 0.000000
vn -0.659137 0.752023 0.000000
vn -0.659137 0.752023 0.000000
vn 0.381671 0.924298 0.000000
vn 0.381671 0.924298 0.000000
vn -0.438640 0.898663 0.000000
vn -0.438640 0.898663 0.000000
vn -0.000000 1.000000 0.000000
vn -0.000000 1.000000 0.000000
vn -0.000000 1.000000 0.000000
vn -0.000000 1.000000 0.000000
vn 0.000000 -1.000000 -0.000000
vn 0.000000 -1.000000 -0.000000
vn 0.000000 -1.000000 -0.000000
vn 0.000000 -1.000000 -0.000000
vn 0.446728 0.894670 0.000000
vn 0.446728 0.894670 0.000000
vn 0.765605 0.643310 0.000000
vn 0.765605 0.643310 0.000000
vn -0.936211 0.351437 -0.000000
vn -0.936211 0.351437 -0.000000
vn -0.562501 0.826797 0.000000
vn -0.562501 0.826797 0.000000
vn -0.963455 -0.267869 -0.000000
vn -0.963455 -0.267869 -0.000000
vn -0.995593 0.093775 -0.000000
vn -0.995593 0.093775 -0.000000
vn 0.781825 -0.623498 -0.000000
vn 0.994764 0.102198 0.000000
vn 0.994764 0.102198 0.000000
vn 0.781825 -0.623498 -0.000000
vn -0.639568 0.768734 0.000000
vn -0.639568 0.768734 0.000000
vn -0.729073 -0.684435 -0.000000
vn -0.729073 -0.684435 -0.000000
vn 0.568652 -0.822578 -0.000000
vn 0.571200 0.820811 0.000000
vn 0.571200 0.820811 0.000000
vn 0.568652 -0.822578 -0.000000
vn -0.405744 -0.913987 -0.000000
vn -0.405744 -0.913987 -0.000000
vn -0.794873 -0.606776 -0.000000
vn -0.794873 -0.606776 -0.000000
vn 0.909034 0.416722 0.000000
vn 0.793856 -0.608105 -0.000000
vn 0.793856 -0.608105 -0.000000
vn 0.909034 0.416722 0.000000
vn -0.618841 0.785516 0.000000
vn -0.618841 0.785516 0.000000
vn 0.712295 0.701880 0.000000
vn 0.712295 0.701880 0.000000
vn -0.846413 -0.532527 -0.000000
vn -0.846413 -0.532527 -0.000000
vn 0.510226 -0.860040 -0.000000
vn 0.510226 -0.860040 -0.000000
vn -0.405744 -0.913987 -0.000000
vn -0.405744 -0.913987 -0.000000
vn 0.327680 -0.944789 -0.000000
vn 0.327680 -0.944789 -0.000000
vn -0.000000 -0.000000 1.000000
vn -0.000000 -0.000000 1.000000
vn -0.000000 -0.000000 1.000000
vn -0.000000 -0.000000 1.000000
vn 0.000000 0.000000 -1.000000
vn 0.000000 0.000000 -1.000000
vn 0.000000 0.000000 -1.000000
vn 0.000000 0.000000 -1.000000
vn 0.000000 0.000000 -1.000000
vn 0.000000 0.000000 -1.000000
vn 0.000000 0.000000 -1.000000
vn 0.000000 0.000000 -1.000000
vn -0.000000 0.000000 1.000000
vn -0.000000 -0.000000 1.000000
vn -0.000000 -0.000000 1.000000
vn -0.000000 0.000000 1.000000
vn -0.000000 -0.000000 1.000000
vn -0.000000 -0.000000 1.000000
vn -0.000000 -0.000000 1.000000
vn -0.000000 -0.000000 1.000000
vn 0.000000 0.000000 -1.000000
vn 0.000000 0.000000 -1.000000
vn 0.000000 0.000000 -1.000000
vn 0.000000 0.000000 -1.000000
vn -0.000000 -0.000000 1.000000
vn -0.000000 -0.000000 1.000000
vn 0.000000 0.000000 -1.000000
vn 0.000000 0.000000 -1.000000
vn -0.000000 -0.000000 1.000000
vn -0.000000 -0.000000 1.000000
vn -0.000000 -0.000000 1.000000
vn -0.000000 -0.000000 1.000000
vn 0.000000 0.000000 -1.000000
vn 0.000000 0.000000 -1.000000
vn 0.000000 0.000000 -1.000000
vn 0.000000 0.000000 -1.000000
vn -0.000000 -0.000000 1.000000
vn -0.000000 -0.000000 1.000000
vn -0.000000 -0.000000 1.000000
vn -0.000000 -0.000000 1.000000
vn 0.000000 0.000000 -1.000000
vn 0.000000 0.000000 -1.000000
vn 0.000000 0.000000 -1.000000
vn 0.000000 0.000000 -1.000000
vn -0.000000 -0.000000 1.000000
vn -0.000000 -0.000000 1.000000
vn -0.000000 -0.000000 1.000000
vn -0.000000 -0.000000 1.000000
vn 0.000000 0.000000 -1.000000
vn 0.000000 0.000000 -1.000000
vn 0.000000 0.000000 -1.000000
vn 0.000000 0.000000 -1.000000
vn -0.000000 -0.000000 1.000000
vn -0.000000 -0.000000 1.000000
vn -0.000000 -0.000000 1.000000
vn -0.000000 -0.000000 1.000000
vn 0.000000 0.000000 -1.000000
vn 0.000000 0.000000 -1.000000
vn 0.000000 0.000000 -1.000000
vn 0.000000 0.000000 -1.000000
vn -0.000000 -0.000000 1.000000
vn -0.000000 -0.000000 1.000000
vn -0.000000 -0.000000 1.000000
vn -0.000000 -0.000000 1.000000
vn 0.000000 0.000000 -1.000000
vn 0.000000 0.000000 -1.000000
vn 0.000000 0.000000 -1.000000
vn 0.000000 0.000000 -1.000000
vn -0.000000 -0.000000 1.000000
vn -0.000000 -0.000000 1.000000
vn -0.000000 -0.000000 1.000000
vn -0.000000 -0.000000 1.000000
vn 0.000000 0.000000 -1.000000
vn 0.000000 0.000000 -1.000000
vn 0.000000 0.000000 -1.000000
vn 0.000000 0.000000 -1.000000
vn -0.000000 -0.000000 1.000000
vn -0.000000 -0.000000 1.000000
vn 0.000000 0.000000 -1.000000
vn 0.000000 0.000000 -1.000000
vn -0.000000 -0.000000 1.000000
vn -0.000000 -0.000000 1.000000
vn 0.000000 0.000000 -1.000000
vn 0.000000 0.000000 -1.000000
vn -0.000000 -0.000000 1.000000
vn -0.000000 -0.000000 1.000000
vn 0.000000 0.000000 -1.000000
vn 0.000000 0.000000 -1.000000
vn -0.000000 -0.000000 1.000000
vn -0.000000 -0.000000 1.000000
vn 0.000000 0.000000 -1.000000
vn 0.000000 0.000000 -1.000000
vn -0.000000 -0.000000 1.000000
vn -0.000000 -0.000000 1.000000
vn 0.000000 0.000000 -1.000000
vn 0.000000 0.000000 -1.000000
vn -0.000000 -0.000000 1.000000
vn -0.000000 -0.000000 1.000000
vn 0.002974 -0.999995 -0.000000
vn 0.002974 -0.999995 -0.000000
vn 0.002974 -0.999995 -0.000000
vn 0.002974 -0.999995 -0.000000
vn 0.000000 0.000000 -1.000000
vn 0.000000 0.000000 -1.000000
vn -0.000000 1.000000 0.000000
vn -0.000000 1.000000 0.000000
vn -0.000000 1.000000 0.000000
vn -0.000000 1.000000 0.000000
vn -0.000000 -0.000000 1.000000
vn -0.000000 -0.000000 1.000000
vn 0.000000 -1.000000 -0.000000
vn 0.000000 -1.000000 -0.000000
vn 0.000000 -1.000000 -0.000000
vn 0.000000 -1.000000 -0.000000
vn 0.000000 0.000000 -1.000000
vn 0.000000 0.000000 -1.000000
vn 0.001544 0.999999 0.000000
vn 0.001544 0.999999 0.000000
vn 0.001544 0.999999 0.000000
vn 0.001544 0.999999 0.000000
vn 1.000000 0.000000 0.000000
vn 1.000000 0.000000 0.000000
vn 1.000000 0.000000 0.000000
vn 1.000000 0.000000 0.000000
vn -1.000000 0.000001 -0.000000
vn -1.000000 0.000001 -0.000000
vn -1.000000 0.000001 -0.000000
vn -1.000000 0.000001 -0.000000
vn -1.000000 -0.000001 -0.000000
vn -1.000000 -0.000001 -0.000000
vn -1.000000 -0.000001 -0.000000
vn -1.000000 -0.000001 -0.000000
vn 1.000000 -0.000000 0.000000
vn 1.000000 -0.000000 0.000000
vn 1.000000 -0.000000 0.000000
vn 1.000000 -0.000000 0.000000
s off
g pCube1
usemtl initialShadingGroup
f 45/97/1 94/153/2 95/154/3 48/100/4
f 49/101/5 104/168/6 101/163/7 52/104/8
s 1
f 46/98/9 53/105/10 54/106/11 47/99/12
s 2
f 55/107/13 45/97/14 48/100/15 56/108/16
f 57/109/17 58/110/18 59/111/19 60/112/20
s 1
f 62/116/21 61/113/22 63/114/23 64/115/24
s 2
f 65/117/25 66/118/26 67/119/27 68/120/28
s 1
f 70/124/29 69/121/30 71/122/31 72/123/32
s 2
f 73/125/33 74/126/34 75/127/35 76/128/36
s 1
f 78/132/37 77/129/38 79/130/39 80/131/40
s 2
f 74/126/34 57/109/17 60/112/20 75/127/35
s 1
f 64/115/24 63/114/23 77/129/38 78/132/37
s 2
f 58/110/18 81/133/41 82/134/42 59/111/19
s 1
f 84/136/43 83/135/44 61/113/22 62/116/21
s 2
f 81/133/41 65/117/25 68/120/28 82/134/42
s 1
f 72/123/32 71/122/31 83/135/44 84/136/43
s 2
f 66/118/26 85/137/45 86/138/46 67/119/27
s 1
f 88/140/47 87/139/48 69/121/30 70/124/29
s 2
f 85/137/45 55/107/13 56/108/16 86/138/46
s 1
f 54/106/11 53/105/10 87/139/48 88/140/47
s 2
f 52/141/49 73/125/33 76/128/36 49/142/50
s 1
f 80/131/40 79/130/39 51/143/51 50/144/52
s off
f 1/49/53 3/52/54 96/155/55 93/152/56
f 5/53/57 7/56/58 102/164/59 103/167/60
s 7
f 2/50/61 4/51/62 37/58/63 40/57/64
s 8
f 39/59/65 38/60/66 3/52/67 1/49/68
f 23/61/69 22/64/70 10/63/71 11/62/72
s 7
f 9/65/73 21/68/74 24/67/75 12/66/76
s 8
f 31/69/77 30/72/78 14/71/79 15/70/80
s 7
f 13/73/81 29/76/82 32/75/83 16/74/84
s 8
f 43/77/85 42/80/86 18/79/87 19/78/88
s 7
f 17/81/89 41/84/90 44/83/91 20/82/92
s 8
f 19/78/88 18/79/87 22/64/70 23/61/69
s 7
f 21/68/74 17/81/89 20/82/92 24/67/75
s 8
f 11/62/72 10/63/71 26/86/93 27/85/94
s 7
f 25/87/95 9/65/73 12/66/76 28/88/96
s 8
f 27/85/94 26/86/93 30/72/78 31/69/77
s 7
f 29/76/82 25/87/95 28/88/96 32/75/83
s 8
f 15/70/80 14/71/79 34/90/97 35/89/98
s 7
f 33/91/99 13/73/81 16/74/84 36/92/100
s 8
f 35/89/98 34/90/97 38/60/66 39/59/65
s 7
f 37/58/63 33/91/99 36/92/100 40/57/64
s 8
f 7/93/101 5/94/102 42/80/86 43/77/85
s 7
f 41/84/90 6/96/103 8/95/104 44/83/91
s 15
f 1/1/105 93/151/106 94/153/107 45/97/108
s 16
f 96/156/109 3/3/110 48/100/111 95/154/112
f 5/5/113 103/166/114 104/168/115 49/101/116
s 15
f 102/165/117 7/7/118 52/104/119 101/163/120
s 19
f 2/2/121 40/44/122 53/105/123 46/98/124
s 20
f 37/41/125 4/4/126 47/99/127 54/106/128
s 15
f 39/43/129 1/1/105 45/97/108 55/107/130
s 16
f 3/3/110 38/42/131 56/108/132 48/100/111
s 15
f 23/27/133 11/15/134 58/110/135 57/109/136
s 16
f 10/14/137 22/26/138 60/112/139 59/111/140
s 19
f 12/16/141 24/28/142 63/114/143 61/113/144
s 20
f 21/25/145 9/13/146 62/116/147 64/115/148
s 15
f 31/35/149 15/19/150 66/118/151 65/117/152
s 16
f 14/18/153 30/34/154 68/120/155 67/119/156
s 19
f 16/20/157 32/36/158 71/122/159 69/121/160
s 20
f 29/33/161 13/17/162 70/124/163 72/123/164
s 15
f 43/47/165 19/23/166 74/126/167 73/125/168
s 16
f 18/22/169 42/46/170 76/128/171 75/127/172
s 19
f 20/24/173 44/48/174 79/130/175 77/129/176
s 20
f 41/45/177 17/21/178 78/132/179 80/131/180
s 15
f 19/23/166 23/27/133 57/109/136 74/126/167
s 16
f 22/26/138 18/22/169 75/127/172 60/112/139
s 19
f 24/28/142 20/24/173 77/129/176 63/114/143
s 20
f 17/21/178 21/25/145 64/115/148 78/132/179
s 15
f 11/15/134 27/31/181 81/133/182 58/110/135
s 16
f 26/30/183 10/14/137 59/111/140 82/134/184
s 19
f 28/32/185 12/16/141 61/113/144 83/135/186
s 20
f 9/13/146 25/29/187 84/136/188 62/116/147
s 15
f 27/31/181 31/35/149 65/117/152 81/133/182
s 16
f 30/34/154 26/30/183 82/134/184 68/120/155
s 19
f 32/36/158 28/32/185 83/135/186 71/122/159
s 20
f 25/29/187 29/33/161 72/123/164 84/136/188
s 15
f 15/19/150 35/39/189 85/137/190 66/118/151
s 16
f 34/38/191 14/18/153 67/119/156 86/138/192
s 19
f 36/40/193 16/20/157 69/121/160 87/139/194
s 20
f 13/17/162 33/37/195 88/140/196 70/124/163
s 15
f 35/39/189 39/43/129 55/107/130 85/137/190
s 16
f 38/42/131 34/38/191 86/138/192 56/108/132
s 19
f 40/44/122 36/40/193 87/139/194 53/105/123
s 20
f 33/37/195 37/41/125 54/106/128 88/140/196
s 15
f 7/11/118 43/47/165 73/125/168 52/141/119
s 16
f 42/46/170 5/12/113 49/142/116 76/128/171
s 19
f 44/48/174 8/9/197 51/143/198 79/130/175
s 20
f 6/10/199 41/45/177 80/131/180 50/144/200
s 19
f 89/145/201 2/2/121 46/98/124 90/147/202
s off
f 91/148/203 90/147/204 46/98/205 47/99/206
s 20
f 4/4/126 92/150/207 91/148/208 47/99/127
s off
f 89/146/209 92/149/210 4/51/211 2/50/212
s 19
f 8/8/197 98/159/213 97/157/214 51/103/198
s off
f 99/161/215 98/158/216 8/55/217 6/54/218
s 20
f 100/162/219 99/160/220 6/6/199 50/102/200
s off
f 97/157/221 100/162/222 50/102/223 51/103/224
f 98/158/225 99/160/226 100/162/227 97/157/228
f 102/165/229 101/163/230 104/168/231 103/167/232
f 94/153/233 93/152/234 96/156/235 95/154/236
f 90/147/237 91/148/238 92/149/239 89/145/240
